PathFileType	4	(X/Y/Z)	RBDS018\RBDS018runT35.trc
DataRate	CameraRate	NumFrames	NumMarkers	Units	OrigDataRate	OrigDataStartFrame	OrigNumFrames
150.000000	150.000000	4	33	mm	150.000000	3937	4500
Frame#	Time	L.ASIS			L.Heel.Bottom			L.Heel.Lateral			L.Heel.Top			L.Iliac.Crest			L.MT1			L.MT5			L.PSIS			L.Shank.Bottom.Lateral			L.Shank.Bottom.Medial			L.Shank.Top.Lateral			L.Shank.Top.Medial			L.Thigh.Bottom.Lateral			L.Thigh.Bottom.Medial			L.Thigh.Top.Lateral			L.Thigh.Top.Medial			R.ASIS			R.ASY			R.Heel.Bottom			R.Heel.Lateral			R.Heel.Top			R.Iliac.Crest			R.MT1			R.MT5			R.PSIS			R.Shank.Bottom.Lateral			R.Shank.Bottom.Medial			R.Shank.Top.Lateral			R.Shank.Top.Medial			R.Thigh.Bottom.Lateral			R.Thigh.Bottom.Medial			R.Thigh.Top.Lateral			R.Thigh.Top.Medial			
		X1	Y1	Z1	X2	Y2	Z2	X3	Y3	Z3	X4	Y4	Z4	X5	Y5	Z5	X6	Y6	Z6	X7	Y7	Z7	X8	Y8	Z8	X9	Y9	Z9	X10	Y10	Z10	X11	Y11	Z11	X12	Y12	Z12	X13	Y13	Z13	X14	Y14	Z14	X15	Y15	Z15	X16	Y16	Z16	X17	Y17	Z17	X18	Y18	Z18	X19	Y19	Z19	X20	Y20	Z20	X21	Y21	Z21	X22	Y22	Z22	X23	Y23	Z23	X24	Y24	Z24	X25	Y25	Z25	X26	Y26	Z26	X27	Y27	Z27	X28	Y28	Z28	X29	Y29	Z29	X30	Y30	Z30	X31	Y31	Z31	X32	Y32	Z32	X33	Y33	Z33	

3938	26.24666666666667	2144.781052401741	1058.404066592637	931.6909083085835	1436.592097398055	354.6442854595589	1022.424348322303	1450.633215020107	322.299621268199	978.3195590135025	1485.841433448484	359.978321664575	1013.107024213362	2107.216978791306	1151.207121411743	884.9498028659226	1521.410382089043	155.0703447463635	1084.498617127538	1499.487930654172	162.14951106616	974.5872371425788	1972.115877473784	1113.641529433829	972.9784011420858	1573.171009745674	375.1486826246161	949.0045398406646	1554.462659713611	402.5497665924291	987.6014615125117	1622.982524568667	435.2253838269045	926.4895717306488	1607.464260481305	465.5607581502158	967.3929380962282	1910.8004930509	695.4267264263506	879.1846881638259	1858.157994192548	728.1958430711394	917.8755032465077	1955.51374566008	792.4763617995908	856.603938827776	1904.512560140241	823.8327184551752	893.2912110773564	2134.69912703682	1068.708123928866	1150.199936763279	2395.961689789949	148.6925272714462	1112.16446190976	2207.604608714719	114.6582104587365	1051.321835452424	2219.571262928219	122.6156523988853	1094.724628764747	2221.45895403457	162.2973164291267	1062.55681666875	2070.520220051266	1149.387665419246	1185.135541926386	2432.678159021245	111.5803781112666	1065.398867382858	2380.489083390291	94.9773708925362	1163.086664333272	1965.651512584534	1109.824486684761	1085.468860110324	2261.889980720789	274.432107675895	1150.63441398534	2229.567040071644	280.8951540904939	1106.724918888906	2252.780331776571	353.252194893858	1168.477236409694	2222.083546130333	358.6662082332282	1125.215786760582	2238.625110994505	691.5914973051573	1206.254757321871	2185.418213658399	660.0250225966456	1167.880079604975	2174.832509911265	780.3427668871166	1221.427659996753	2124.190314295191	749.272500785375	1186.731799869797	
3939	26.25333333333333	2145.918076813266	1059.352614042654	931.4169032504192	1431.42083910998	370.4264059492723	1020.85098196734	1444.92567976799	336.783849805721	977.7198406877102	1480.840632833726	374.1663964287345	1012.068218993116	2106.394521989999	1152.547583052263	884.4570257589816	1510.541623906399	170.2597996985469	1087.851520699993	1489.550058195777	175.5493651305576	977.6004260627798	1972.874197293098	1115.502550555693	972.563041475606	1570.306098212262	385.5409902365067	949.1055217633631	1552.205966119895	414.3088990945284	987.0878404233995	1622.799310139908	443.1848771259275	926.335566148858	1608.043732169987	474.7612069322828	966.5799756526783	1917.289762016225	692.5407645889733	879.1428220238336	1863.560427355313	725.0005385887903	916.7102949953183	1961.241710190532	790.0106755141958	856.5999678570792	1908.936047818138	821.0409493646074	891.8277031355185	2134.539827908503	1068.466757386576	1150.02573330945	2411.40369034439	147.8997357155003	1110.363167654235	2223.644737259894	106.0429882868455	1052.0177596694	2236.192554770726	113.3987296260243	1095.255367069825	2235.329029430718	153.9817634657772	1064.24702150496	2070.791947816979	1149.088438142687	1184.801639173436	2448.721654033321	114.0196303345638	1061.954558653726	2399.4554319063	91.80345442626961	1159.893961853765	1966.151884452657	1110.950717461766	1085.185320561705	2272.289012138425	267.7335462841223	1151.857782440027	2238.319454690908	272.7776240320246	1109.070970502509	2259.788415416062	345.9598946126729	1170.44482206885	2227.354713863295	350.0335962005183	1128.357909091633	2233.230999564864	687.2370425235907	1206.683936521189	2179.848386174466	657.2743201297674	1167.389258471967	2171.290748128414	777.1721957889224	1222.178214548807	2120.375319067628	747.7782321196343	1186.732592045912	
3940	26.26	2146.965736518536	1059.903342182074	931.0968012167258	1427.531980208114	386.5026608577965	1019.217198930098	1440.356507400094	351.5958970633252	977.0223583986024	1477.080342437462	388.5934692652236	1010.92123157046	2105.380446440854	1153.368985316372	883.8742515075494	1500.702800376022	185.7259638358173	1090.7908139882	1480.446190672399	189.3953788631032	980.1853435148766	1973.476625662111	1116.524758926481	972.0840544210937	1568.504312983467	396.092326161221	949.1536535361739	1551.232964269793	426.0973202850475	986.6661594631809	1623.652067800763	451.1651884262857	926.2677438943055	1609.869110162457	483.8414319002798	965.973224786092	1924.203842957225	688.9216570086171	879.3350612254525	1869.471269334828	720.8451553182342	916.0039581017803	1967.045447256713	786.9587811221338	856.8624021648216	1913.583682131774	817.4334762270036	890.9206554146938	2134.269766598877	1067.869972962079	1149.814210336889	2424.231700118216	147.1098824896281	1108.43390376373	2237.027555840521	98.45267120577812	1052.905834586104	2250.394156751893	105.0579513692591	1095.912185192049	2246.853326414568	146.4927236021477	1066.17817947441	2070.842522142435	1148.272993967613	1184.363349725687	2461.644864732163	116.3418864197199	1058.271055662472	2415.699538307643	88.73891553075111	1156.401191143834	1966.405596042683	1111.234912893535	1084.77960429472	2280.969416380472	261.7329071149003	1153.238148565935	2245.339856144699	265.4202641684108	1111.580003074857	2265.530395495949	339.3502719152709	1172.442595621097	2231.332464150777	342.1291619061205	1131.529176362803	2227.862632144383	682.8271831115362	1207.031283561482	2174.338871107334	654.5044952268056	1166.786179816025	2167.713576538337	773.8880481535494	1222.929217094917	2116.607758256408	746.2093374041385	1186.662798257671	
3941	26.26666666666667	2147.927753704876	1060.032440983253	930.7332681924561	1425.188736343615	402.8438177080142	1017.605634156865	1437.168427412189	366.7656994806766	976.2435736541324	1474.822013078145	403.2197902632061	1009.730338136417	2104.271820530857	1153.661442112866	883.2089995727674	1492.038697065992	201.2961907506026	1093.122234585362	1472.342601694079	203.673194933027	982.1713966189474	1973.955773080558	1116.611367988015	971.502452823708	1567.924758094568	406.7322077087888	949.1429942306538	1551.691192440986	437.8066529460333	986.3456056136857	1625.665692170167	459.1168891640607	926.2931021931462	1613.041682917586	492.7192940986085	965.5991079945744	1931.448891621742	684.6271947523778	879.734568723112	1875.82767180622	715.798127530931	915.7716704960383	1972.836516074991	783.3495876196262	857.3429607158855	1918.401531287627	813.0553939063874	890.5729333782066	2133.93491380525	1066.934502913061	1149.55887877814	2434.292473317125	146.0471526105331	1106.449669992563	2247.517872206112	91.71085535617192	1053.97291180981	2261.892574866469	97.46093722002797	1096.688122394057	2255.841830576049	139.6923100036902	1068.291826116339	2070.700458581127	1146.967922643231	1183.838618574349	2471.358159458377	118.1603335122554	1054.490496046942	2428.948521156032	85.5762496378089	1152.758069262052	1966.425569627638	1110.625452911874	1084.202437349702	2287.655532677029	256.3317258737288	1154.679228849989	2250.508503101503	258.7521877477145	1114.02639541188	2269.756384022043	333.3851933746341	1174.310967039714	2233.936972021101	334.9437477965552	1134.435181560656	2222.633755154341	678.4713235017829	1207.239876292444	2168.983590775469	651.7371555869848	1166.103550691849	2164.16197506866	770.5798526152167	1223.569156453109	2112.934519919953	744.5613667538601	1186.48717622657	
